<svg xmlns="http://www.w3.org/2000/svg" width="195" height="45" viewBox="0 0 195 45">
  <g id="Group_4" data-name="Group 4" transform="translate(-668 -239.5)">
    <g id="Rectangle_9" data-name="Rectangle 9" transform="translate(668 239.5)" fill="#292929" stroke="#707070" stroke-width="1">
      <rect width="195" height="45" rx="5" stroke="none"/>
      <rect x="0.5" y="0.5" width="194" height="44" rx="4.5" fill="none"/>
    </g>
    <text id="smugglebank" transform="translate(724 270.5)" fill="#fff" font-size="20" font-family="SegoeUI-Bold, Segoe UI" font-weight="700"><tspan x="0" y="0">smugglebank</tspan></text>
    <path id="Icon_awesome-money-bill-wave-alt" data-name="Icon awesome-money-bill-wave-alt" d="M24.957,3.152a11.9,11.9,0,0,0-4.677-.9c-4.949,0-9.9,2.5-14.846,2.5A12.191,12.191,0,0,1,1.712,4.2,1.374,1.374,0,0,0,1.3,4.138,1.279,1.279,0,0,0,0,5.416V18.164a1.278,1.278,0,0,0,.757,1.184,11.892,11.892,0,0,0,4.677.9c4.949,0,9.9-2.505,14.846-2.505A12.191,12.191,0,0,1,24,18.3a1.374,1.374,0,0,0,.416.065,1.278,1.278,0,0,0,1.3-1.278V4.336A1.279,1.279,0,0,0,24.957,3.152Zm-12.1,11.955c-1.775,0-3.214-1.727-3.214-3.857s1.439-3.857,3.214-3.857,3.214,1.727,3.214,3.857S14.632,15.107,12.857,15.107Z" transform="translate(689.285 255.25)" fill="#fff"/>
    <path id="Icon_awesome-sun" data-name="Icon awesome-sun" d="M10.643,6.652a3.991,3.991,0,1,0,3.991,3.991A4,4,0,0,0,10.643,6.652ZM20.887,10,16.95,8.032l1.393-4.174a.719.719,0,0,0-.91-.91L13.258,4.34,11.288.4A.72.72,0,0,0,10,.4L8.032,4.336,3.854,2.944a.719.719,0,0,0-.91.91L4.336,8.028.4,10a.72.72,0,0,0,0,1.289l3.937,1.966L2.944,17.432a.719.719,0,0,0,.91.91L8.028,16.95l1.966,3.937a.72.72,0,0,0,1.289,0L13.25,16.95l4.174,1.393a.719.719,0,0,0,.91-.91l-1.393-4.174,3.937-1.966A.721.721,0,0,0,20.887,10Zm-6.482,4.407a5.321,5.321,0,1,1,0-7.525A5.327,5.327,0,0,1,14.406,14.406Z" transform="translate(680.643 250.214)" fill="#f86d38"/>
  </g>
</svg>
