<svg xmlns="http://www.w3.org/2000/svg" width="168" height="43" viewBox="0 0 168 43">
  <g id="Group_3" data-name="Group 3" transform="translate(-80 -22)">
    <text id="smugglEX" transform="translate(97 57)" fill="#fff" font-size="32" font-family="SegoeUI-Bold, Segoe UI" font-weight="700"><tspan x="0" y="0">smuggl</tspan><tspan y="0" fill="#f86d38">EX</tspan></text>
    <path id="Icon_material-attach-money" data-name="Icon material-attach-money" d="M17.7,16.35c-3.4-.885-4.5-1.8-4.5-3.225,0-1.635,1.515-2.775,4.05-2.775,2.67,0,3.66,1.275,3.75,3.15h3.315A5.979,5.979,0,0,0,19.5,7.785V4.5H15V7.74c-2.91.63-5.25,2.52-5.25,5.415,0,3.465,2.865,5.19,7.05,6.2,3.75.9,4.5,2.22,4.5,3.615,0,1.035-.735,2.685-4.05,2.685-3.09,0-4.305-1.38-4.47-3.15H9.48c.18,3.285,2.64,5.13,5.52,5.745V31.5h4.5V28.275c2.925-.555,5.25-2.25,5.25-5.325C24.75,18.69,21.1,17.235,17.7,16.35Z" transform="translate(70.52 25.5)" fill="#f86d38"/>
  </g>
</svg>
